# xmcd CD database file
#
# Track frame offsets:
#	150
#	8160
#	59587
#	68353
#	84003
#	91394
#	129040
#	136185
#	166645
#	176354
#	192403
#	201964
#	237672
#	247767
#	257674
#	267844
#	293871
#	302973
#
# Disc length: 4424 seconds
#
# Revision: 1
# Processed by: cddbd v1.5.2PL0 Copyright (c) Steve Scherf et al.
# Submitted via: CDex 1.70beta2
#
DISCID=e9114612
DTITLE=Musique de la nature - L'éveil de la nature
DYEAR=1900
DGENRE=New Age
TTITLE0=Chant des oiseaux au lever du soleil
TTITLE1=Eveil d'impressions joyeuses en arrivant à la campagne,de la sixième symphonie (Pastorale)
TTITLE2=Réveil des oiseaux dans la forêt
TTITLE3=Au matin,de (Peer Gynt)
TTITLE4=Musique de la mer
TTITLE5=De l'aube à midi sur la mer,de (La Mer)
TTITLE6=Chant des baleines
TTITLE7=Nuages
TTITLE8=Chuchotement du ruisseau au printemps
TTITLE9=Le Printemps, des (Quatre Saisons)
TTITLE10=Calme du paysage: merle en Provence
TTITLE11=Fantaisie en fa mineur
TTITLE12=Chant du rossignol
TTITLE13=Interlude, de (Daphné et Chloé)
TTITLE14=Concert de la grive
TTITLE15=Lever du jour sur la Moskova,de (La Khovanchtchina)
TTITLE16=Ambiance du matin dans la clairière
TTITLE17=Ronde des princesses,de (L'Oiseau de feu)
EXTD=
EXTT0=
EXTT1=
EXTT2=
EXTT3=
EXTT4=
EXTT5=
EXTT6=
EXTT7=
EXTT8=
EXTT9=
EXTT10=
EXTT11=
EXTT12=
EXTT13=
EXTT14=
EXTT15=
EXTT16=
EXTT17=
PLAYORDER=
